<?xml version="1.0" encoding="utf-8"?>
<!DOCTYPE svg PUBLIC "-//W3C//DTD SVG 1.1//EN" "http://www.w3.org/Graphics/SVG/1.1/DTD/svg11.dtd">
<svg version="1.1" id="图形" xmlns="http://www.w3.org/2000/svg" xmlns:xlink="http://www.w3.org/1999/xlink" x="0px" y="0px" width="1024px" height="1024px" viewBox="0 0 1024 1024" enable-background="new 0 0 1024 1024" xml:space="preserve">
  <path fill="#969696" d="M721.816145 0.266451c0 49.65798 40.263006 89.920986 89.920986 89.920986s89.920986-40.263006 89.920986-89.920986c0-49.65184-40.263006-89.929172-89.920986-89.929172S721.816145-49.386412 721.816145 0.266451zM571.946812 599.740712c0 49.659003 40.263006 89.922009 89.920986 89.922009 49.659003 0 89.922009-40.263006 89.922009-89.922009 0-49.65798-40.263006-89.920986-89.922009-89.920986C612.209818 509.819726 571.946812 550.082732 571.946812 599.740712zM122.340861 135.148441c0 82.778308 67.104327 149.868309 149.868309 149.868309 82.765005 0 149.869333-67.090001 149.869333-149.868309 0-82.780355-67.104327-149.870356-149.869333-149.870356C189.445188-14.721915 122.340861 52.36911 122.340861 135.148441zM62.393537 135.148441c0-115.885334 93.946672-209.823819 209.815633-209.823819 82.105996 0 153.162332 47.155996 187.643658 115.861798l202.088648-35.593659-0.073678-5.326309c0-82.785471 67.104327-149.876496 149.869333-149.876496 82.763982 0 149.868309 67.091024 149.868309 149.876496 0 82.780355-67.104327 149.868309-149.868309 149.868309-60.021002 0-111.772666-35.228339-135.715985-86.173638l-197.141986 34.700313c2.078335 11.839653 3.146667 24.045649 3.146667 36.487006 0 54.780651-21.002336 104.643292-55.365982 141.993968l182.300976 182.316326c16.449647-6.205329 34.276664-9.586332 52.906977-9.586332 82.765005 0 149.869333 67.090001 149.869333 149.869333 0 82.779332-67.104327 149.869333-149.869333 149.869333-82.763982 0-149.868309-67.090001-149.868309-149.869333 0-42.033325 17.314341-80.012312 45.179992-107.235326L379.883495 315.210423c-31.482015 18.879999-68.289316 29.754674-107.675348 29.754674C156.339186 344.964074 62.393537 251.031728 62.393537 135.148441z" transform="translate(0, 812) scale(1, -1)"/>
</svg>
