<?xml version="1.0" encoding="UTF-8" standalone="no"?>
<svg width="369px" height="72px" viewBox="0 0 369 72" version="1.1" xmlns="http://www.w3.org/2000/svg" xmlns:xlink="http://www.w3.org/1999/xlink" xmlns:sketch="http://www.bohemiancoding.com/sketch/ns">
    <!-- Generator: Sketch 3.1.1 (8761) - http://www.bohemiancoding.com/sketch -->
    <title>logo</title>
    <desc>Created with Sketch.</desc>
    <defs></defs>
    <g id="Page-1" stroke="none" stroke-width="1" fill="none" fill-rule="evenodd" sketch:type="MSPage">
        <g id="logo" sketch:type="MSArtboardGroup">
            <circle id="Oval-1" stroke="#353535" stroke-width="10" sketch:type="MSShapeGroup" cx="36" cy="36" r="30"></circle>
            <path d="M15.5670765,55.0751174 C15.5670765,55.0751174 27.5355475,66.3669831 42.0580575,59.3423118 C53.4810017,53.8169289 53.7724287,45.3064497 50.6353032,44.7799865 C47.4981777,44.2535232 47.8944913,46.8089226 42.8545192,46.8089226 C37.9863875,46.8089226 36.6504183,41.6974472 38.380935,38.4391946 C40.1114517,35.180942 43.9960919,34.9459057 43.9960919,34.9459057 C43.9960919,34.9459057 42.1169293,33.8397464 37.9679298,34.9459057 C33.8189302,36.052065 31.3564627,38.0717541 26.2984456,36.5088295 C21.2404285,34.9459049 19.484397,29.158706 21.5794492,22.6525155 C23.5075591,16.6647648 29.3621925,10.8210295 42.0580575,11.40348 C68.5490385,12.6188116 64.8200366,36.9592782 64.8200366,36.9592782 C64.8200366,36.9592782 62.1268184,64.6367186 40.1114517,64.6367187 C18.0960851,64.6367189 15.5670765,55.0751174 15.5670765,55.0751174 Z" id="Path-1" fill="#353535" sketch:type="MSShapeGroup"></path>
            <path d="M123.875,59 L93.15625,59 L93.15625,14.1875 L123.875,14.1875 L123.875,23.15625 L102.125,23.15625 L102.125,32.125 L116.84375,32.125 L116.84375,41.09375 L102.125,41.09375 L102.125,50.03125 L123.875,50.03125 L123.875,59 Z M164.96875,59 L154.09375,59 L145.46875,44.53125 L136.8125,59 L126,59 L139.75,36.59375 L126,14.1875 L136.8125,14.1875 L145.46875,28.65625 L154.09375,14.1875 L164.96875,14.1875 L151.21875,36.59375 L164.96875,59 Z M204.90625,54.40625 C202.822906,56.1979256 200.489596,57.5729119 197.90625,58.53125 C195.322904,59.4895881 192.645847,59.96875 189.875,59.96875 C187.749989,59.96875 185.703135,59.6927111 183.734375,59.140625 C181.765615,58.5885389 179.921884,57.8072967 178.203125,56.796875 C176.484366,55.7864533 174.916674,54.5729238 173.5,53.15625 C172.083326,51.7395762 170.869797,50.1718836 169.859375,48.453125 C168.848953,46.7343664 168.067711,44.8906348 167.515625,42.921875 C166.963539,40.9531152 166.6875,38.9062606 166.6875,36.78125 C166.6875,34.6562394 166.963539,32.6041766 167.515625,30.625 C168.067711,28.6458234 168.848953,26.7968836 169.859375,25.078125 C170.869797,23.3593664 172.083326,21.7916738 173.5,20.375 C174.916674,18.9583262 176.484366,17.7447967 178.203125,16.734375 C179.921884,15.7239533 181.765615,14.9427111 183.734375,14.390625 C185.703135,13.8385389 187.749989,13.5625 189.875,13.5625 C192.645847,13.5625 195.322904,14.0364536 197.90625,14.984375 C200.489596,15.9322964 202.822906,17.3124909 204.90625,19.125 L200.15625,26.9375 C198.843743,25.5208262 197.291676,24.4322955 195.5,23.671875 C193.708324,22.9114545 191.833343,22.53125 189.875,22.53125 C187.895823,22.53125 186.041675,22.9062463 184.3125,23.65625 C182.583325,24.4062537 181.072923,25.4218686 179.78125,26.703125 C178.489577,27.9843814 177.468754,29.494783 176.71875,31.234375 C175.968746,32.973967 175.59375,34.8229069 175.59375,36.78125 C175.59375,38.7395931 175.968746,40.5781164 176.71875,42.296875 C177.468754,44.0156336 178.489577,45.5208269 179.78125,46.8125 C181.072923,48.1041731 182.583325,49.1249963 184.3125,49.875 C186.041675,50.6250037 187.895823,51 189.875,51 C191.833343,51 193.708324,50.6197955 195.5,49.859375 C197.291676,49.0989545 198.843743,48.0104238 200.15625,46.59375 L204.90625,54.40625 Z M219.0625,59 L210.09375,59 L210.09375,14.1875 L219.0625,14.1875 L219.0625,59 Z M246.1875,59 L237.25,59 L237.25,23.15625 L223.78125,23.15625 L223.78125,14.1875 L259.625,14.1875 L259.625,23.15625 L246.1875,23.15625 L246.1875,59 Z M295.09375,59 L264.375,59 L264.375,14.1875 L295.09375,14.1875 L295.09375,23.15625 L273.34375,23.15625 L273.34375,32.125 L288.0625,32.125 L288.0625,41.09375 L273.34375,41.09375 L273.34375,50.03125 L295.09375,50.03125 L295.09375,59 Z M337.28125,36.59375 C337.28125,38.6562603 337.015628,40.6406155 336.484375,42.546875 C335.953122,44.4531345 335.197922,46.2343667 334.21875,47.890625 C333.239578,49.5468833 332.072923,51.0572848 330.71875,52.421875 C329.364577,53.7864652 327.854175,54.9583284 326.1875,55.9375 C324.520825,56.9166716 322.734385,57.6718723 320.828125,58.203125 C318.921865,58.7343777 316.93751,59 314.875,59 L301.375,59 L301.375,14.1875 L314.875,14.1875 C316.93751,14.1875 318.921865,14.4531223 320.828125,14.984375 C322.734385,15.5156277 324.520825,16.2708284 326.1875,17.25 C327.854175,18.2291716 329.364577,19.4010348 330.71875,20.765625 C332.072923,22.1302152 333.239578,23.6406167 334.21875,25.296875 C335.197922,26.9531333 335.953122,28.7343655 336.484375,30.640625 C337.015628,32.5468845 337.28125,34.5312397 337.28125,36.59375 L337.28125,36.59375 Z M328.3125,36.59375 C328.3125,34.7395741 327.963545,33.0000081 327.265625,31.375 C326.567705,29.7499919 325.609381,28.3281311 324.390625,27.109375 C323.171869,25.8906189 321.7448,24.9270869 320.109375,24.21875 C318.47395,23.5104131 316.729176,23.15625 314.875,23.15625 L310.40625,23.15625 L310.40625,50.03125 L314.875,50.03125 C316.729176,50.03125 318.47395,49.6822952 320.109375,48.984375 C321.7448,48.2864548 323.171869,47.3281311 324.390625,46.109375 C325.609381,44.8906189 326.567705,43.4635498 327.265625,41.828125 C327.963545,40.1927002 328.3125,38.4479259 328.3125,36.59375 L328.3125,36.59375 Z M351.34375,47.9375 L344.375,47.9375 L342.46875,14.1875 L353.28125,14.1875 L351.34375,47.9375 Z M353.21875,55.8125 C353.21875,56.5625037 353.078126,57.2656217 352.796875,57.921875 C352.515624,58.5781283 352.135419,59.1458309 351.65625,59.625 C351.177081,60.1041691 350.614587,60.4843736 349.96875,60.765625 C349.322913,61.0468764 348.63542,61.1875 347.90625,61.1875 C347.156246,61.1875 346.458337,61.0468764 345.8125,60.765625 C345.166663,60.4843736 344.598961,60.1041691 344.109375,59.625 C343.619789,59.1458309 343.234376,58.5781283 342.953125,57.921875 C342.671874,57.2656217 342.53125,56.5625037 342.53125,55.8125 C342.53125,55.0833297 342.671874,54.3958366 342.953125,53.75 C343.234376,53.1041634 343.619789,52.5416691 344.109375,52.0625 C344.598961,51.5833309 345.166663,51.2031264 345.8125,50.921875 C346.458337,50.6406236 347.156246,50.5 347.90625,50.5 C348.63542,50.5 349.322913,50.6406236 349.96875,50.921875 C350.614587,51.2031264 351.177081,51.5833309 351.65625,52.0625 C352.135419,52.5416691 352.515624,53.1041634 352.796875,53.75 C353.078126,54.3958366 353.21875,55.0833297 353.21875,55.8125 L353.21875,55.8125 Z" id="EXCITED!" fill="#353535" sketch:type="MSShapeGroup"></path>
        </g>
    </g>
</svg>