<?xml version="1.0" encoding="UTF-8" standalone="no"?>
<svg width="93px" height="18px" viewBox="0 0 93 18" version="1.1" xmlns="http://www.w3.org/2000/svg" xmlns:xlink="http://www.w3.org/1999/xlink" xmlns:sketch="http://www.bohemiancoding.com/sketch/ns">
    <!-- Generator: Sketch 3.1.1 (8761) - http://www.bohemiancoding.com/sketch -->
    <title>Artboard 2</title>
    <desc>Created with Sketch.</desc>
    <defs></defs>
    <g id="Page-1" stroke="none" stroke-width="1" fill="none" fill-rule="evenodd" sketch:type="MSPage">
        <g id="Artboard-2" sketch:type="MSArtboardGroup" fill="#353535">
            <path d="M12.375593,16.2650919 L2,16.2650919 L2,1.20997375 L12.375593,1.20997375 L12.375593,4.22309711 L5.02929317,4.22309711 L5.02929317,7.23622047 L10.0007116,7.23622047 L10.0007116,10.2493438 L5.02929317,10.2493438 L5.02929317,13.2519685 L12.375593,13.2519685 L12.375593,16.2650919 Z M26.2554554,16.2650919 L22.5823055,16.2650919 L19.6691176,11.4041995 L16.7453748,16.2650919 L13.0933349,16.2650919 L17.7375474,8.73753281 L13.0933349,1.20997375 L16.7453748,1.20997375 L19.6691176,6.07086614 L22.5823055,1.20997375 L26.2554554,1.20997375 L21.6112429,8.73753281 L26.2554554,16.2650919 Z M39.7447818,14.7217848 C39.0411097,15.3237125 38.2530088,15.7856502 37.3804554,16.1076115 C36.507902,16.4295729 35.603697,16.5905512 34.6678131,16.5905512 C33.9500676,16.5905512 33.2587201,16.4978137 32.59375,16.312336 C31.9287799,16.1268582 31.3060394,15.8643936 30.72551,15.5249344 C30.1449805,15.1854751 29.6154752,14.7777802 29.1369782,14.3018373 C28.6584812,13.8258944 28.2485983,13.2992155 27.9073174,12.7217848 C27.5660364,12.1443541 27.3021633,11.5249377 27.1156902,10.8635171 C26.9292171,10.2020964 26.835982,9.51443927 26.835982,8.80052493 C26.835982,8.0866106 26.9292171,7.39720367 27.1156902,6.73228346 C27.3021633,6.06736325 27.5660364,5.44619711 27.9073174,4.8687664 C28.2485983,4.2913357 28.6584812,3.7646568 29.1369782,3.28871391 C29.6154752,2.81277102 30.1449805,2.40507606 30.72551,2.0656168 C31.3060394,1.72615753 31.9287799,1.46369297 32.59375,1.27821522 C33.2587201,1.09273748 33.9500676,1 34.6678131,1 C35.603697,1 36.507902,1.1592285 37.3804554,1.47769029 C38.2530088,1.79615207 39.0411097,2.25983948 39.7447818,2.8687664 L38.1404175,5.49343832 C37.697104,5.01749543 37.1728762,4.6517948 36.5677182,4.39632546 C35.9625602,4.14085612 35.3292649,4.01312336 34.6678131,4.01312336 C33.9993246,4.01312336 33.3730659,4.13910635 32.789018,4.39107612 C32.2049702,4.64304588 31.6948156,4.98424982 31.2585389,5.41469816 C30.8222622,5.84514651 30.4774681,6.35257801 30.2241461,6.93700787 C29.9708242,7.52143774 29.8441651,8.14260388 29.8441651,8.80052493 C29.8441651,9.45844598 29.9708242,10.0761126 30.2241461,10.6535433 C30.4774681,11.230974 30.8222622,11.7366557 31.2585389,12.1706037 C31.6948156,12.6045516 32.2049702,12.9475053 32.789018,13.1994751 C33.3730659,13.4514448 33.9993246,13.5774278 34.6678131,13.5774278 C35.3292649,13.5774278 35.9625602,13.4496951 36.5677182,13.1942257 C37.1728762,12.9387564 37.697104,12.5730557 38.1404175,12.0971129 L39.7447818,14.7217848 Z M44.5262097,16.2650919 L41.4969165,16.2650919 L41.4969165,1.20997375 L44.5262097,1.20997375 L44.5262097,16.2650919 Z M53.6879744,16.2650919 L50.6692362,16.2650919 L50.6692362,4.22309711 L46.120019,4.22309711 L46.120019,1.20997375 L58.2266366,1.20997375 L58.2266366,4.22309711 L53.6879744,4.22309711 L53.6879744,16.2650919 Z M70.2065939,16.2650919 L59.8310009,16.2650919 L59.8310009,1.20997375 L70.2065939,1.20997375 L70.2065939,4.22309711 L62.8602941,4.22309711 L62.8602941,7.23622047 L67.8317125,7.23622047 L67.8317125,10.2493438 L62.8602941,10.2493438 L62.8602941,13.2519685 L70.2065939,13.2519685 L70.2065939,16.2650919 Z M84.4558824,8.73753281 C84.4558824,9.43044966 84.3661655,10.0971097 84.1867291,10.7375328 C84.0072927,11.377956 83.7522154,11.9763752 83.4214896,12.5328084 C83.0907637,13.0892416 82.6967132,13.5966731 82.2393264,14.0551181 C81.7819395,14.5135631 81.2717849,14.9072599 80.7088472,15.2362205 C80.1459096,15.565181 79.5425198,15.8188967 78.8986599,15.9973753 C78.2547999,16.1758539 77.5845623,16.2650919 76.8879269,16.2650919 L72.3281546,16.2650919 L72.3281546,1.20997375 L76.8879269,1.20997375 C77.5845623,1.20997375 78.2547999,1.29921171 78.8986599,1.47769029 C79.5425198,1.65616887 80.1459096,1.90988462 80.7088472,2.23884514 C81.2717849,2.56780567 81.7819395,2.96150252 82.2393264,3.41994751 C82.6967132,3.87839249 83.0907637,4.38582399 83.4214896,4.94225722 C83.7522154,5.49869045 84.0072927,6.09710966 84.1867291,6.73753281 C84.3661655,7.37795596 84.4558824,8.04461596 84.4558824,8.73753281 L84.4558824,8.73753281 Z M81.4265892,8.73753281 C81.4265892,8.11460756 81.3087259,7.53018646 81.0729957,6.98425197 C80.8372656,6.43831748 80.5135813,5.96063197 80.1019331,5.5511811 C79.6902849,5.14173024 79.2082768,4.81802394 78.6558942,4.58005249 C78.1035116,4.34208105 77.5141951,4.22309711 76.8879269,4.22309711 L75.3785579,4.22309711 L75.3785579,13.2519685 L76.8879269,13.2519685 C77.5141951,13.2519685 78.1035116,13.1347343 78.6558942,12.9002625 C79.2082768,12.6657906 79.6902849,12.3438341 80.1019331,11.9343832 C80.5135813,11.5249323 80.8372656,11.0454971 81.0729957,10.496063 C81.3087259,9.94662892 81.4265892,9.36045806 81.4265892,8.73753281 L81.4265892,8.73753281 Z M89.2056452,12.5485564 L86.8518738,12.5485564 L86.2080171,1.20997375 L89.8600569,1.20997375 L89.2056452,12.5485564 Z M89.8389469,15.1942257 C89.8389469,15.4461955 89.7914497,15.6824136 89.696454,15.9028871 C89.6014583,16.1233607 89.47304,16.3140849 89.3111954,16.4750656 C89.1493509,16.6360463 88.9593623,16.7637791 88.7412239,16.8582677 C88.5230856,16.9527564 88.2908773,17 88.044592,17 C87.7912701,17 87.5555435,16.9527564 87.3374051,16.8582677 C87.1192668,16.7637791 86.927519,16.6360463 86.7621561,16.4750656 C86.5967931,16.3140849 86.4666158,16.1233607 86.37162,15.9028871 C86.2766243,15.6824136 86.2291271,15.4461955 86.2291271,15.1942257 C86.2291271,14.9492551 86.2766243,14.7182863 86.37162,14.5013123 C86.4666158,14.2843384 86.5967931,14.0953639 86.7621561,13.9343832 C86.927519,13.7734025 87.1192668,13.6456698 87.3374051,13.5511811 C87.5555435,13.4566924 87.7912701,13.4094488 88.044592,13.4094488 C88.2908773,13.4094488 88.5230856,13.4566924 88.7412239,13.5511811 C88.9593623,13.6456698 89.1493509,13.7734025 89.3111954,13.9343832 C89.47304,14.0953639 89.6014583,14.2843384 89.696454,14.5013123 C89.7914497,14.7182863 89.8389469,14.9492551 89.8389469,15.1942257 L89.8389469,15.1942257 Z" id="EXCITED!-2" sketch:type="MSShapeGroup"></path>
        </g>
    </g>
</svg>